<mxfile host="app.diagrams.net" agent="Mozilla/5.0 (Windows NT 10.0; Win64; x64) AppleWebKit/537.36 (KHTML, like Gecko) Chrome/133.0.0.0 Safari/537.36" version="26.0.14">
  <diagram name="Page-1" id="LuLJbXCC-MuU4jHSFNh8">
    <mxGraphModel dx="978" dy="482" grid="1" gridSize="10" guides="1" tooltips="1" connect="1" arrows="1" fold="1" page="1" pageScale="1" pageWidth="850" pageHeight="1100" math="0" shadow="0">
      <root>
        <mxCell id="0" />
        <mxCell id="1" parent="0" />
        <mxCell id="5NJ1pugXPzePn0BYfRPo-1" value="" style="shape=or;whiteSpace=wrap;html=1;" parent="1" vertex="1">
          <mxGeometry x="250" y="70" width="50" height="50" as="geometry" />
        </mxCell>
        <mxCell id="knz-vopeXLWIy0nvYE_B-102" style="edgeStyle=orthogonalEdgeStyle;rounded=0;orthogonalLoop=1;jettySize=auto;html=1;exitX=0;exitY=0.75;exitDx=0;exitDy=0;exitPerimeter=0;entryX=0;entryY=0.75;entryDx=0;entryDy=0;entryPerimeter=0;" edge="1" parent="1" target="5NJ1pugXPzePn0BYfRPo-3">
          <mxGeometry relative="1" as="geometry">
            <mxPoint x="290" y="440" as="sourcePoint" />
          </mxGeometry>
        </mxCell>
        <mxCell id="5NJ1pugXPzePn0BYfRPo-3" value="" style="shape=or;whiteSpace=wrap;html=1;" parent="1" vertex="1">
          <mxGeometry x="540" y="395" width="50" height="50" as="geometry" />
        </mxCell>
        <mxCell id="5NJ1pugXPzePn0BYfRPo-4" value="" style="shape=or;whiteSpace=wrap;html=1;" parent="1" vertex="1">
          <mxGeometry x="350" y="98" width="50" height="50" as="geometry" />
        </mxCell>
        <mxCell id="5NJ1pugXPzePn0BYfRPo-7" value="" style="shape=xor;whiteSpace=wrap;html=1;" parent="1" vertex="1">
          <mxGeometry x="630" y="180" width="50" height="50" as="geometry" />
        </mxCell>
        <mxCell id="5NJ1pugXPzePn0BYfRPo-8" value="" style="shape=xor;whiteSpace=wrap;html=1;" parent="1" vertex="1">
          <mxGeometry x="530" y="130" width="40" height="50" as="geometry" />
        </mxCell>
        <mxCell id="5NJ1pugXPzePn0BYfRPo-31" value="n1" style="text;html=1;align=center;verticalAlign=middle;resizable=0;points=[];autosize=1;strokeColor=none;fillColor=none;" parent="1" vertex="1">
          <mxGeometry x="30" y="80" width="40" height="30" as="geometry" />
        </mxCell>
        <mxCell id="5NJ1pugXPzePn0BYfRPo-32" value="n2" style="text;html=1;align=center;verticalAlign=middle;resizable=0;points=[];autosize=1;strokeColor=none;fillColor=none;" parent="1" vertex="1">
          <mxGeometry x="40" y="168" width="40" height="30" as="geometry" />
        </mxCell>
        <mxCell id="5NJ1pugXPzePn0BYfRPo-33" value="n3" style="text;html=1;align=center;verticalAlign=middle;resizable=0;points=[];autosize=1;strokeColor=none;fillColor=none;" parent="1" vertex="1">
          <mxGeometry x="40" y="270" width="40" height="30" as="geometry" />
        </mxCell>
        <mxCell id="5NJ1pugXPzePn0BYfRPo-34" value="n4" style="text;html=1;align=center;verticalAlign=middle;resizable=0;points=[];autosize=1;strokeColor=none;fillColor=none;" parent="1" vertex="1">
          <mxGeometry x="40" y="370" width="40" height="30" as="geometry" />
        </mxCell>
        <mxCell id="5NJ1pugXPzePn0BYfRPo-77" value="" style="triangle;whiteSpace=wrap;html=1;" parent="1" vertex="1">
          <mxGeometry x="116.56" y="115" width="30" height="40" as="geometry" />
        </mxCell>
        <mxCell id="5NJ1pugXPzePn0BYfRPo-78" value="" style="ellipse;whiteSpace=wrap;html=1;aspect=fixed;" parent="1" vertex="1">
          <mxGeometry x="146.56" y="130" width="10" height="10" as="geometry" />
        </mxCell>
        <mxCell id="5NJ1pugXPzePn0BYfRPo-79" value="" style="triangle;whiteSpace=wrap;html=1;" parent="1" vertex="1">
          <mxGeometry x="116.56" y="305" width="30" height="40" as="geometry" />
        </mxCell>
        <mxCell id="5NJ1pugXPzePn0BYfRPo-80" value="" style="ellipse;whiteSpace=wrap;html=1;aspect=fixed;" parent="1" vertex="1">
          <mxGeometry x="146.56" y="320" width="10" height="10" as="geometry" />
        </mxCell>
        <mxCell id="knz-vopeXLWIy0nvYE_B-19" value="" style="shape=or;whiteSpace=wrap;html=1;" vertex="1" parent="1">
          <mxGeometry x="440" y="220" width="50" height="50" as="geometry" />
        </mxCell>
        <mxCell id="knz-vopeXLWIy0nvYE_B-33" style="edgeStyle=orthogonalEdgeStyle;rounded=0;orthogonalLoop=1;jettySize=auto;html=1;exitX=0;exitY=0.75;exitDx=0;exitDy=0;exitPerimeter=0;" edge="1" parent="1" source="knz-vopeXLWIy0nvYE_B-20">
          <mxGeometry relative="1" as="geometry">
            <mxPoint x="349.7777777777778" y="342.44444444444446" as="targetPoint" />
          </mxGeometry>
        </mxCell>
        <mxCell id="knz-vopeXLWIy0nvYE_B-93" style="edgeStyle=orthogonalEdgeStyle;rounded=0;orthogonalLoop=1;jettySize=auto;html=1;entryX=0;entryY=0.25;entryDx=0;entryDy=0;entryPerimeter=0;" edge="1" parent="1" target="knz-vopeXLWIy0nvYE_B-20">
          <mxGeometry relative="1" as="geometry">
            <mxPoint x="170" y="140" as="sourcePoint" />
            <Array as="points">
              <mxPoint x="170" y="318" />
            </Array>
          </mxGeometry>
        </mxCell>
        <mxCell id="knz-vopeXLWIy0nvYE_B-20" value="" style="shape=or;whiteSpace=wrap;html=1;" vertex="1" parent="1">
          <mxGeometry x="350" y="305" width="50" height="50" as="geometry" />
        </mxCell>
        <mxCell id="knz-vopeXLWIy0nvYE_B-87" style="edgeStyle=orthogonalEdgeStyle;rounded=0;orthogonalLoop=1;jettySize=auto;html=1;exitX=1;exitY=0.5;exitDx=0;exitDy=0;entryX=0;entryY=0.25;entryDx=0;entryDy=0;entryPerimeter=0;" edge="1" parent="1" source="5NJ1pugXPzePn0BYfRPo-78" target="knz-vopeXLWIy0nvYE_B-21">
          <mxGeometry relative="1" as="geometry">
            <Array as="points">
              <mxPoint x="157" y="140" />
              <mxPoint x="180" y="140" />
              <mxPoint x="180" y="193" />
            </Array>
          </mxGeometry>
        </mxCell>
        <mxCell id="knz-vopeXLWIy0nvYE_B-88" style="edgeStyle=orthogonalEdgeStyle;rounded=0;orthogonalLoop=1;jettySize=auto;html=1;exitX=0;exitY=0.75;exitDx=0;exitDy=0;exitPerimeter=0;entryX=0;entryY=0.75;entryDx=0;entryDy=0;entryPerimeter=0;" edge="1" parent="1" target="knz-vopeXLWIy0nvYE_B-21">
          <mxGeometry relative="1" as="geometry">
            <mxPoint x="210.0000000000001" y="160" as="sourcePoint" />
            <Array as="points">
              <mxPoint x="210" y="218" />
            </Array>
          </mxGeometry>
        </mxCell>
        <mxCell id="knz-vopeXLWIy0nvYE_B-21" value="" style="shape=or;whiteSpace=wrap;html=1;" vertex="1" parent="1">
          <mxGeometry x="350" y="180" width="50" height="50" as="geometry" />
        </mxCell>
        <mxCell id="knz-vopeXLWIy0nvYE_B-100" style="edgeStyle=orthogonalEdgeStyle;rounded=0;orthogonalLoop=1;jettySize=auto;html=1;entryX=0;entryY=0.75;entryDx=0;entryDy=0;entryPerimeter=0;" edge="1" parent="1" target="knz-vopeXLWIy0nvYE_B-31">
          <mxGeometry relative="1" as="geometry">
            <mxPoint x="210" y="290" as="sourcePoint" />
            <Array as="points">
              <mxPoint x="210" y="290" />
              <mxPoint x="326" y="290" />
              <mxPoint x="326" y="393" />
            </Array>
          </mxGeometry>
        </mxCell>
        <mxCell id="knz-vopeXLWIy0nvYE_B-31" value="" style="shape=or;whiteSpace=wrap;html=1;" vertex="1" parent="1">
          <mxGeometry x="440" y="355" width="50" height="50" as="geometry" />
        </mxCell>
        <mxCell id="knz-vopeXLWIy0nvYE_B-34" value="" style="ellipse;whiteSpace=wrap;html=1;aspect=fixed;" vertex="1" parent="1">
          <mxGeometry x="146.56" y="220" width="10" height="10" as="geometry" />
        </mxCell>
        <mxCell id="knz-vopeXLWIy0nvYE_B-35" value="" style="triangle;whiteSpace=wrap;html=1;" vertex="1" parent="1">
          <mxGeometry x="116.56" y="205" width="30" height="40" as="geometry" />
        </mxCell>
        <mxCell id="knz-vopeXLWIy0nvYE_B-47" value="" style="triangle;whiteSpace=wrap;html=1;" vertex="1" parent="1">
          <mxGeometry x="116.56" y="420" width="30" height="40" as="geometry" />
        </mxCell>
        <mxCell id="knz-vopeXLWIy0nvYE_B-48" value="" style="ellipse;whiteSpace=wrap;html=1;aspect=fixed;" vertex="1" parent="1">
          <mxGeometry x="146.56" y="435" width="10" height="10" as="geometry" />
        </mxCell>
        <mxCell id="knz-vopeXLWIy0nvYE_B-49" value="circuit diagram of C" style="text;html=1;align=center;verticalAlign=middle;resizable=0;points=[];autosize=1;strokeColor=none;fillColor=none;" vertex="1" parent="1">
          <mxGeometry x="270" y="30" width="130" height="30" as="geometry" />
        </mxCell>
        <mxCell id="knz-vopeXLWIy0nvYE_B-69" style="edgeStyle=orthogonalEdgeStyle;rounded=0;orthogonalLoop=1;jettySize=auto;html=1;exitX=0.955;exitY=0.539;exitDx=0;exitDy=0;entryX=0;entryY=0.5;entryDx=0;entryDy=0;exitPerimeter=0;" edge="1" parent="1" source="5NJ1pugXPzePn0BYfRPo-34" target="knz-vopeXLWIy0nvYE_B-47">
          <mxGeometry relative="1" as="geometry">
            <mxPoint x="77" y="390" as="sourcePoint" />
            <Array as="points">
              <mxPoint x="77" y="386" />
              <mxPoint x="77" y="440" />
            </Array>
          </mxGeometry>
        </mxCell>
        <mxCell id="knz-vopeXLWIy0nvYE_B-80" style="edgeStyle=orthogonalEdgeStyle;rounded=0;orthogonalLoop=1;jettySize=auto;html=1;entryX=0;entryY=0.75;entryDx=0;entryDy=0;" edge="1" parent="1" target="5NJ1pugXPzePn0BYfRPo-79">
          <mxGeometry relative="1" as="geometry">
            <mxPoint x="80" y="290" as="sourcePoint" />
            <Array as="points">
              <mxPoint x="80" y="335" />
            </Array>
          </mxGeometry>
        </mxCell>
        <mxCell id="knz-vopeXLWIy0nvYE_B-81" style="edgeStyle=orthogonalEdgeStyle;rounded=0;orthogonalLoop=1;jettySize=auto;html=1;entryX=0;entryY=0.5;entryDx=0;entryDy=0;" edge="1" parent="1" target="5NJ1pugXPzePn0BYfRPo-77">
          <mxGeometry relative="1" as="geometry">
            <mxPoint x="80" y="80" as="sourcePoint" />
            <Array as="points">
              <mxPoint x="70" y="135" />
            </Array>
          </mxGeometry>
        </mxCell>
        <mxCell id="knz-vopeXLWIy0nvYE_B-82" style="edgeStyle=orthogonalEdgeStyle;rounded=0;orthogonalLoop=1;jettySize=auto;html=1;entryX=0;entryY=0.25;entryDx=0;entryDy=0;entryPerimeter=0;" edge="1" parent="1" target="5NJ1pugXPzePn0BYfRPo-1">
          <mxGeometry relative="1" as="geometry">
            <mxPoint x="70" y="80" as="sourcePoint" />
            <Array as="points">
              <mxPoint x="72" y="80" />
              <mxPoint x="160" y="80" />
              <mxPoint x="160" y="83" />
            </Array>
          </mxGeometry>
        </mxCell>
        <mxCell id="knz-vopeXLWIy0nvYE_B-83" style="edgeStyle=orthogonalEdgeStyle;rounded=0;orthogonalLoop=1;jettySize=auto;html=1;exitX=1.113;exitY=0.5;exitDx=0;exitDy=0;exitPerimeter=0;entryX=0;entryY=0.75;entryDx=0;entryDy=0;entryPerimeter=0;" edge="1" parent="1" source="5NJ1pugXPzePn0BYfRPo-32" target="5NJ1pugXPzePn0BYfRPo-1">
          <mxGeometry relative="1" as="geometry">
            <Array as="points">
              <mxPoint x="210" y="183" />
              <mxPoint x="210" y="108" />
            </Array>
          </mxGeometry>
        </mxCell>
        <mxCell id="knz-vopeXLWIy0nvYE_B-84" style="edgeStyle=orthogonalEdgeStyle;rounded=0;orthogonalLoop=1;jettySize=auto;html=1;exitX=1;exitY=0.5;exitDx=0;exitDy=0;exitPerimeter=0;entryX=0;entryY=0.25;entryDx=0;entryDy=0;entryPerimeter=0;" edge="1" parent="1" source="5NJ1pugXPzePn0BYfRPo-1" target="5NJ1pugXPzePn0BYfRPo-4">
          <mxGeometry relative="1" as="geometry" />
        </mxCell>
        <mxCell id="knz-vopeXLWIy0nvYE_B-85" style="edgeStyle=orthogonalEdgeStyle;rounded=0;orthogonalLoop=1;jettySize=auto;html=1;entryX=0;entryY=0.75;entryDx=0;entryDy=0;entryPerimeter=0;" edge="1" parent="1" target="5NJ1pugXPzePn0BYfRPo-4">
          <mxGeometry relative="1" as="geometry">
            <mxPoint x="80" y="290" as="sourcePoint" />
            <Array as="points">
              <mxPoint x="80" y="290" />
              <mxPoint x="215" y="290" />
              <mxPoint x="215" y="135" />
            </Array>
          </mxGeometry>
        </mxCell>
        <mxCell id="knz-vopeXLWIy0nvYE_B-86" style="edgeStyle=orthogonalEdgeStyle;rounded=0;orthogonalLoop=1;jettySize=auto;html=1;exitX=1;exitY=0.5;exitDx=0;exitDy=0;exitPerimeter=0;entryX=0.175;entryY=0.25;entryDx=0;entryDy=0;entryPerimeter=0;" edge="1" parent="1" source="5NJ1pugXPzePn0BYfRPo-4" target="5NJ1pugXPzePn0BYfRPo-8">
          <mxGeometry relative="1" as="geometry" />
        </mxCell>
        <mxCell id="knz-vopeXLWIy0nvYE_B-89" style="edgeStyle=orthogonalEdgeStyle;rounded=0;orthogonalLoop=1;jettySize=auto;html=1;exitX=1;exitY=0.5;exitDx=0;exitDy=0;exitPerimeter=0;entryX=0;entryY=0.25;entryDx=0;entryDy=0;entryPerimeter=0;" edge="1" parent="1" source="knz-vopeXLWIy0nvYE_B-21" target="knz-vopeXLWIy0nvYE_B-19">
          <mxGeometry relative="1" as="geometry" />
        </mxCell>
        <mxCell id="knz-vopeXLWIy0nvYE_B-90" style="edgeStyle=orthogonalEdgeStyle;rounded=0;orthogonalLoop=1;jettySize=auto;html=1;exitX=1;exitY=0.5;exitDx=0;exitDy=0;entryX=0;entryY=0.75;entryDx=0;entryDy=0;entryPerimeter=0;" edge="1" parent="1" source="knz-vopeXLWIy0nvYE_B-48" target="knz-vopeXLWIy0nvYE_B-19">
          <mxGeometry relative="1" as="geometry" />
        </mxCell>
        <mxCell id="knz-vopeXLWIy0nvYE_B-91" style="edgeStyle=orthogonalEdgeStyle;rounded=0;orthogonalLoop=1;jettySize=auto;html=1;exitX=1;exitY=0.5;exitDx=0;exitDy=0;exitPerimeter=0;entryX=0.175;entryY=0.75;entryDx=0;entryDy=0;entryPerimeter=0;" edge="1" parent="1" source="knz-vopeXLWIy0nvYE_B-19" target="5NJ1pugXPzePn0BYfRPo-8">
          <mxGeometry relative="1" as="geometry">
            <Array as="points">
              <mxPoint x="510" y="245" />
              <mxPoint x="510" y="168" />
            </Array>
          </mxGeometry>
        </mxCell>
        <mxCell id="knz-vopeXLWIy0nvYE_B-92" style="edgeStyle=orthogonalEdgeStyle;rounded=0;orthogonalLoop=1;jettySize=auto;html=1;exitX=1;exitY=0.5;exitDx=0;exitDy=0;exitPerimeter=0;entryX=0.175;entryY=0.25;entryDx=0;entryDy=0;entryPerimeter=0;" edge="1" parent="1" source="5NJ1pugXPzePn0BYfRPo-8" target="5NJ1pugXPzePn0BYfRPo-7">
          <mxGeometry relative="1" as="geometry" />
        </mxCell>
        <mxCell id="knz-vopeXLWIy0nvYE_B-95" style="edgeStyle=orthogonalEdgeStyle;rounded=0;orthogonalLoop=1;jettySize=auto;html=1;exitX=1.094;exitY=0.497;exitDx=0;exitDy=0;entryX=0;entryY=0.5;entryDx=0;entryDy=0;exitPerimeter=0;" edge="1" parent="1" source="5NJ1pugXPzePn0BYfRPo-32" target="knz-vopeXLWIy0nvYE_B-35">
          <mxGeometry relative="1" as="geometry">
            <Array as="points">
              <mxPoint x="80" y="183" />
              <mxPoint x="80" y="218" />
              <mxPoint x="97" y="218" />
              <mxPoint x="97" y="225" />
            </Array>
          </mxGeometry>
        </mxCell>
        <mxCell id="knz-vopeXLWIy0nvYE_B-96" style="edgeStyle=orthogonalEdgeStyle;rounded=0;orthogonalLoop=1;jettySize=auto;html=1;exitX=1;exitY=0.5;exitDx=0;exitDy=0;entryX=0;entryY=0.75;entryDx=0;entryDy=0;entryPerimeter=0;" edge="1" parent="1" source="knz-vopeXLWIy0nvYE_B-34" target="knz-vopeXLWIy0nvYE_B-20">
          <mxGeometry relative="1" as="geometry" />
        </mxCell>
        <mxCell id="knz-vopeXLWIy0nvYE_B-97" style="edgeStyle=orthogonalEdgeStyle;rounded=0;orthogonalLoop=1;jettySize=auto;html=1;exitX=1;exitY=0.5;exitDx=0;exitDy=0;exitPerimeter=0;entryX=0;entryY=0.25;entryDx=0;entryDy=0;entryPerimeter=0;" edge="1" parent="1" source="knz-vopeXLWIy0nvYE_B-20" target="knz-vopeXLWIy0nvYE_B-31">
          <mxGeometry relative="1" as="geometry" />
        </mxCell>
        <mxCell id="knz-vopeXLWIy0nvYE_B-101" style="edgeStyle=orthogonalEdgeStyle;rounded=0;orthogonalLoop=1;jettySize=auto;html=1;exitX=1;exitY=0.5;exitDx=0;exitDy=0;exitPerimeter=0;entryX=0;entryY=0.25;entryDx=0;entryDy=0;entryPerimeter=0;" edge="1" parent="1" source="knz-vopeXLWIy0nvYE_B-31" target="5NJ1pugXPzePn0BYfRPo-3">
          <mxGeometry relative="1" as="geometry" />
        </mxCell>
        <mxCell id="knz-vopeXLWIy0nvYE_B-103" style="edgeStyle=orthogonalEdgeStyle;rounded=0;orthogonalLoop=1;jettySize=auto;html=1;exitX=1;exitY=0.5;exitDx=0;exitDy=0;exitPerimeter=0;entryX=0.175;entryY=0.75;entryDx=0;entryDy=0;entryPerimeter=0;" edge="1" parent="1" source="5NJ1pugXPzePn0BYfRPo-3" target="5NJ1pugXPzePn0BYfRPo-7">
          <mxGeometry relative="1" as="geometry" />
        </mxCell>
      </root>
    </mxGraphModel>
  </diagram>
</mxfile>
